<?xml version="1.0" encoding="utf-8"?>
<!-- Generator: Adobe Illustrator 25.0.0, SVG Export Plug-In . SVG Version: 6.00 Build 0)  -->
<svg version="1.1" id="Layer_1" xmlns="http://www.w3.org/2000/svg" xmlns:xlink="http://www.w3.org/1999/xlink" x="0px" y="0px"
	 viewBox="0 0 3312 3088" style="enable-background:new 0 0 3312 3088;" xml:space="preserve">
<style type="text/css">
	.st0{fill:#231815;}
</style>
<path class="st0" d="M1787.06,879.35c59.58-27.68,128.64-43,194.32-41.12c0,0,0.01,0,0.01,0.01
	c84.23,228.43,165.16,458.31,250.8,686.16c3.7,11.2,19.03-3.8,24.07-10.94c116.13-164.7,74.58-430.79-126.54-494.21c0,0,0,0,0,0
	c-11.82-30.15-22.44-61.99-33.98-92.42c0-0.01,0-0.01,0.01-0.01c364.98,50.11,419.07,573.34,104.15,735.63c-0.01,0-0.01,0-0.01-0.01
	c-92.9-246.12-177.61-495.67-271.75-741.05c0,0-0.01-0.01-0.01-0.01c-140.19,5.86-261.88,127.32-311.08,254.14
	c0,0.01-0.01,0.01-0.02,0c-16.22-23.28-33.61-43.69-54.06-62.24c0,0,0-0.01,0-0.01C1603.5,1012.42,1688.64,924.93,1787.06,879.35z"
	/>
<path class="st0" d="M499.75,858.51c104.79-0.04,219.3-0.26,324.04,0c0,0,0.01,0,0.01,0.01c0.36,23.25-0.03,54.04-0.13,77.22
	c0,0,0,0,0,0c-86.76,1.27-174.1-1.19-260.87,0.51c-2.96-0.01-4.5,2.9-5.56,5.24c0,0,0,0,0,0c-14.48,39.63-26.08,80.33-39.56,120.34
	c-2.7,8.14-5.37,16.29-7.73,24.54c-2.84,6.96,6.17,15.78,12.87,11.61c203.04-92.99,468.4,59.85,462.49,289.85
	c4.63,258.06,348.73,357.27,485.91,135.41c0,0,0.01-0.01,0.01,0c11.26,17.33,33.05,51.88,43.6,68.89c0,0,0,0,0,0
	c-132.88,189.86-445.55,167.86-557.17-33.35c-39.57-62.01-50.2-135.14-52.08-207.27c0,0,0,0,0,0
	c-30.95-208.15-315.53-270.89-446.99-115.35c-21.55-12.19-44.92-26.77-66.81-39.26C426.82,1087.22,498.34,862.8,499.75,858.51
	C499.75,858.51,499.75,858.51,499.75,858.51z"/>
<path class="st0" d="M1131.2,858.51c112.41,0.18,223.78,0.13,335.51,0c0.01,0,0.01,0.01,0.01,0.01
	c-0.04,25.91,0.26,51.09,0.26,77.04c0,0.01-0.01,0.01-0.01,0.01c-90.19,1.31-187.03-0.78-277.21,0.55c-3-0.19-3.55,3.26-4.7,5.29
	c-16.45,46.2-30.45,93.31-46.24,139.77c-4.76,11.81,5.03,19.34,9.56,17.42c65.26-28,138.81-34.16,208.33-20.71
	c124.78,24.05,207.29,118.54,246.47,235.39c17.88,55.26,27.25,114.15,61.14,162.87c88.28,144.97,279.62,208.57,437.93,148.89
	c0,0,0.01,0,0.01,0c9.41,23.39,18.94,48,27.46,71.42c0,0,0,0.01,0,0.01c-243.83,98.39-540.46-63.97-589.39-322.25
	c-12.36-55.72-37.16-109.66-76.85-151.2c-100.6-108.44-281.71-93.4-378.06,12.64c0,0-0.01,0-0.01,0
	c-22.84-13.14-43.68-24.9-65.1-39.16c0,0-0.01-0.01,0-0.01c36.9-108.46,72.19-230.17,110.89-337.96
	C1131.18,858.52,1131.19,858.51,1131.2,858.51z"/>
<path class="st0" d="M2460.39,861.15c24.57,0.18,54.72,0.46,78.97,0.46c116.32,343.03,147.7,436.59,198.7,589.94
	c3.52,10.59,18.32,10.53,21.8-0.07c49.25-149.89,77.08-235.57,199.2-590c27.18-0.38,63.31-0.08,90.51,0.01
	c-84.6,268.99-173.47,537.02-260.29,805.42h-80.65c-69.59-205.2-131.02-414.26-202.53-618.47c-7.54-23.2-13.2-2.4-17.44,6.82
	c-7.99,19.63-26.88,65.35-34.54,83.63c-14.19-39.39-30.21-73.13-50.94-105.19C2421.9,978.33,2460.05,862.3,2460.39,861.15z"/>
<path class="st0" d="M300.49,1508.9c17.44-7.1,52.8-20.59,70.66-26.59c78.94,193.3,346.8,219.12,464.59,46.01
	c7.82,25.72,19.32,51.53,34.07,73.35C728.8,1804.36,378,1740.1,300.49,1508.9z"/>
</svg>
